<svg xmlns="http://www.w3.org/2000/svg" width="757.053" height="82.387" viewBox="0 0 757.053 82.387">
  <g id="Groupe_348" data-name="Groupe 348" transform="translate(1016.601 -501.329)">
    <g id="Groupe_287" data-name="Groupe 287">
      <g id="Groupe_4" data-name="Groupe 4">
        <g id="Groupe_3" data-name="Groupe 3">
          <path id="Tracé_8" data-name="Tracé 8" d="M-409.149,516.027a14.768,14.768,0,0,1,10.1,4.019A16.038,16.038,0,0,1-394,531.254a22.771,22.771,0,0,1-8.029,15.915l-9.246,9.219L-415.2,560.3h21.982v7.6h-33.367v-5.945l17.868-18.409a17.874,17.874,0,0,0,6.527-11.483,8.044,8.044,0,0,0-2.383-6.072A7.635,7.635,0,0,0-409.9,523.8l-.58.031h-.018a11.058,11.058,0,0,0-9.121,5.092l-6.8-3.945a17.6,17.6,0,0,1,15.15-8.9h.851a11.681,11.681,0,0,1,1.268-.06m0-2.294c-.481,0-.975.029-1.473.076l-.645-.014a19.93,19.93,0,0,0-18.162,12.093l10.764,6.237a8.958,8.958,0,0,1,8.206-5.993,3.553,3.553,0,0,1,.564-.031,5.308,5.308,0,0,1,3.722,1.528,5.809,5.809,0,0,1,1.708,4.343,15.7,15.7,0,0,1-5.677,9.784l-18.736,19.265v9.157h37.96V558h-18.742l9.245-9.219a24.78,24.78,0,0,0,8.7-17.383,18.422,18.422,0,0,0-5.775-13.041,17.154,17.154,0,0,0-11.657-4.63Z" fill="#0b0b66"/>
          <path id="Tracé_9" data-name="Tracé 9" d="M-365.37,516.09c12.615,0,20.457,10.15,20.457,26.493,0,16.327-7.842,26.466-20.457,26.466S-385.8,558.91-385.8,542.583c0-16.343,7.824-26.493,20.427-26.493m0,45.221c5.6,0,12.275-3.255,12.275-18.728l-.019-2.293h-.041c-.645-13.514-6.908-16.436-12.214-16.436-5.6,0-12.265,3.242-12.265,18.73s6.663,18.728,12.265,18.728m0-47.5c-14.429,0-22.716,11.681-22.716,28.773,0,17.062,8.287,28.756,22.716,28.756s22.734-11.694,22.734-28.756-8.291-28.773-22.734-28.773Zm0,45.211c-6.7,0-9.967-5.764-9.967-16.435s3.269-16.436,9.967-16.436,9.967,5.764,9.967,16.436h.03c0,10.671-3.287,16.435-10,16.435Z" fill="#0b0b66"/>
          <path id="Tracé_10" data-name="Tracé 10" d="M-320.838,516.027a14.709,14.709,0,0,1,10.071,4.019,16,16,0,0,1,5.061,11.208,22.824,22.824,0,0,1-8.024,15.915l-9.251,9.219-3.927,3.914h22v7.6H-338.3v-5.945l17.885-18.409a18.069,18.069,0,0,0,6.533-11.483,8.041,8.041,0,0,0-2.4-6.072,7.572,7.572,0,0,0-5.323-2.187l-.576.031h-.017a11.049,11.049,0,0,0-9.122,5.092l-6.794-3.945a17.569,17.569,0,0,1,15.138-8.9h.863a11.394,11.394,0,0,1,1.28-.06m0-2.294c-.494,0-.992.029-1.485.076l-.658-.014a19.92,19.92,0,0,0-18.144,12.093l10.748,6.237a8.978,8.978,0,0,1,8.229-5.993,3.156,3.156,0,0,1,.541-.031,5.293,5.293,0,0,1,3.732,1.528,5.664,5.664,0,0,1,1.7,4.343,15.575,15.575,0,0,1-5.665,9.784l-18.748,19.265v9.157h37.961V558h-18.731l9.239-9.219a24.8,24.8,0,0,0,8.693-17.383,18.3,18.3,0,0,0-5.763-13.041,17.141,17.141,0,0,0-11.646-4.63Z" fill="#0b0b66"/>
          <path id="Tracé_11" data-name="Tracé 11" d="M-277.759,516.027a14.754,14.754,0,0,1,10.078,4.019,16.1,16.1,0,0,1,5.06,11.208,22.888,22.888,0,0,1-8.035,15.915l-9.245,9.219-3.927,3.914h22v7.6h-33.393v-5.945l17.874-18.409a17.983,17.983,0,0,0,6.545-11.483,8.06,8.06,0,0,0-2.4-6.072,7.593,7.593,0,0,0-5.319-2.187l-.582.031h-.017a11.064,11.064,0,0,0-9.128,5.092l-6.8-3.945a17.615,17.615,0,0,1,15.15-8.9h.857a11.483,11.483,0,0,1,1.285-.06m0-2.294c-.492,0-.992.029-1.485.076l-.657-.014a19.937,19.937,0,0,0-18.162,12.093l10.762,6.237a8.966,8.966,0,0,1,8.212-5.993,3.49,3.49,0,0,1,.569-.031,5.275,5.275,0,0,1,3.709,1.528,5.73,5.73,0,0,1,1.72,4.343,15.675,15.675,0,0,1-5.675,9.784l-18.743,19.265v9.157h37.96V558H-278.3l9.262-9.219a24.861,24.861,0,0,0,8.693-17.383,18.435,18.435,0,0,0-5.782-13.041,17.132,17.132,0,0,0-11.634-4.63Z" fill="#0b0b66"/>
        </g>
      </g>
      <g id="Groupe_7" data-name="Groupe 7">
        <g id="Groupe_6" data-name="Groupe 6">
          <path id="Tracé_16" data-name="Tracé 16" d="M-461.168,571.838c-.03.181-.064.353-.094.522a24.119,24.119,0,0,0,21.7-14.464A18.616,18.616,0,0,0-461.168,571.838Z" fill="#0b0b66"/>
          <path id="Tracé_17" data-name="Tracé 17" d="M-471.58,570.247c.041-.214.117-.413.176-.627a16.532,16.532,0,0,0-12.223-19.931h0l-.014,0a18.075,18.075,0,0,0-2.143-.353A24.118,24.118,0,0,0-471.58,570.247Z" fill="#0b0b66"/>
          <path id="Tracé_18" data-name="Tracé 18" d="M-452.586,546.811a17.981,17.981,0,0,0-.451,4.8,21.913,21.913,0,0,0,15.932-18.361A17.8,17.8,0,0,0-452.586,546.811Z" fill="#0b0b66"/>
          <path id="Tracé_19" data-name="Tracé 19" d="M-477.954,541.093a21.849,21.849,0,0,0,17.4,11.207,14.074,14.074,0,0,0-10.607-11.269A13.817,13.817,0,0,0-477.954,541.093Z" fill="#0b0b66"/>
          <path id="Tracé_20" data-name="Tracé 20" d="M-456.447,508.483a14.64,14.64,0,0,0-1.883-7.154,14.685,14.685,0,0,0-3.223,9.2,14.6,14.6,0,0,0,1.9,7.171A14.628,14.628,0,0,0-456.447,508.483Z" fill="#0b0b66"/>
          <path id="Tracé_21" data-name="Tracé 21" d="M-479.88,520.423a14.618,14.618,0,0,0,8.723,2.843,14.653,14.653,0,0,0,7.325-1.972,14.74,14.74,0,0,0-8.728-2.861A14.754,14.754,0,0,0-479.88,520.423Z" fill="#0b0b66"/>
          <path id="Tracé_22" data-name="Tracé 22" d="M-446.237,516.479a18.734,18.734,0,0,0-.176-2.448,14.709,14.709,0,0,0-7.335,12.736,14.671,14.671,0,0,0,.639,4.295A18.828,18.828,0,0,0-446.237,516.479Z" fill="#0b0b66"/>
          <path id="Tracé_23" data-name="Tracé 23" d="M-470.222,528.955a14.731,14.731,0,0,0-7.2,1.88,18.852,18.852,0,0,0,12.28,4.554,18.741,18.741,0,0,0,6.287-1.1A14.752,14.752,0,0,0-470.222,528.955Z" fill="#0b0b66"/>
          <path id="Tracé_24" data-name="Tracé 24" d="M-466.87,511.618l-.112-.278a11.286,11.286,0,0,0-10.822-6.572,12.206,12.206,0,0,0,.541,1.576,11.225,11.225,0,0,0,9.72,6.541,40.416,40.416,0,0,1,9.985,37.168,40.529,40.529,0,0,1-34.92,30.8v2.86a42.755,42.755,0,0,0,36.6-32.457A42.645,42.645,0,0,0-466.87,511.618Z" fill="#0b0b66"/>
        </g>
      </g>
      <g id="Groupe_287-2" data-name="Groupe 287-2">
        <path id="Tracé_206" data-name="Tracé 206" d="M-1003.02,529.155v6.928h20.508v13.58h-20.508v6.889h20.508v13.587l-34.089.035v-54.6h34.089v13.58Zm17.058-18.524-26,1.945v-2.221l26-4.166Z" fill="#e60000"/>
        <path id="Tracé_207" data-name="Tracé 207" d="M-932.642,570.171h-14.313l-12.221-26h6.348a6.9,6.9,0,0,0,5.795-7.48,6.9,6.9,0,0,0-5.795-7.486H-961.5v40.96h-13.58V515.676h22.256A20.224,20.224,0,0,1-933.5,536.691a16.544,16.544,0,0,1-8.331,15.446Z" fill="#e60000"/>
        <path id="Tracé_208" data-name="Tracé 208" d="M-927.1,570.165V515.676h13.58v54.489Z" fill="#e60000"/>
        <path id="Tracé_209" data-name="Tracé 209" d="M-907.844,541.927a27.248,27.248,0,0,1,7.923-20.222,27.249,27.249,0,0,1,20.19-8,24.459,24.459,0,0,1,23.372,14.658l-11.692,5.721a12.777,12.777,0,0,0-11.68-7.931A14.776,14.776,0,0,0-890.238,531a14.775,14.775,0,0,0-3.787,10.934,14.779,14.779,0,0,0,3.787,10.934,14.776,14.776,0,0,0,10.507,4.85,12.776,12.776,0,0,0,11.68-7.943l11.692,5.728a24.611,24.611,0,0,1-23.372,14.657,27.29,27.29,0,0,1-20.179-8.019A27.286,27.286,0,0,1-907.844,541.927Z" fill="#e60000"/>
        <path id="Tracé_210" data-name="Tracé 210" d="M-808.971,556.593v13.581h-44.044V556.593l26.4-27.329h-26.41v-13.58h44.049v13.58h-.011l-26.4,27.329Z" fill="#0b0b66"/>
        <path id="Tracé_212" data-name="Tracé 212" d="M-709.969,515.676v54.489h-13.58v-31L-735.59,559.99l-12.1-20.874v31.049h-13.58V515.676h13.58l12.1,20.9,12.041-20.9Z" fill="#0b0b66"/>
        <path id="Tracé_213" data-name="Tracé 213" d="M-652.052,515.676v54.489h-13.58v-31l-12.042,20.824-12.1-20.874v31.049h-13.58V515.676h13.58l12.1,20.9,12.042-20.9Z" fill="#0b0b66"/>
        <path id="Tracé_214" data-name="Tracé 214" d="M-598.006,522.754a27.206,27.206,0,0,1,7.911,20.235,27.2,27.2,0,0,1-7.911,20.232,27.2,27.2,0,0,1-20.2,7.987,27.265,27.265,0,0,1-20.227-7.981,27.265,27.265,0,0,1-7.958-20.238,27.273,27.273,0,0,1,7.957-20.241,27.273,27.273,0,0,1,20.228-7.985A27.2,27.2,0,0,1-598.006,522.754ZM-607.622,554a14.539,14.539,0,0,0,3.71-11.006,14.5,14.5,0,0,0-3.694-11.021,14.488,14.488,0,0,0-10.6-4.763,14.512,14.512,0,0,0-10.641,4.741,14.514,14.514,0,0,0-3.728,11.043,14.547,14.547,0,0,0,3.738,11.029,14.547,14.547,0,0,0,10.631,4.755A14.538,14.538,0,0,0-607.622,554Z" fill="#0b0b66"/>
        <path id="Tracé_215" data-name="Tracé 215" d="M-541.086,515.7v36.642c-.027,10.97-6.7,18.693-21.884,18.693s-21.985-7.824-21.985-18.693V515.7h13.58v36.608a7.665,7.665,0,0,0,2.677,5.319,7.657,7.657,0,0,0,5.678,1.795,7.626,7.626,0,0,0,5.676-1.8,7.62,7.62,0,0,0,2.649-5.334V515.7Z" fill="#0b0b66"/>
        <path id="Tracé_216" data-name="Tracé 216" d="M-492.539,570.171h-14.313l-12.221-26h6.348a6.9,6.9,0,0,0,5.795-7.48,6.9,6.9,0,0,0-5.795-7.486H-521.4v40.96h-13.58V515.676h22.256A20.224,20.224,0,0,1-493.4,536.691a16.545,16.545,0,0,1-8.331,15.446Z" fill="#0b0b66"/>
      </g>
    </g>
    <path id="Tracé_240" data-name="Tracé 240" d="M-789.2,529.149v6.928H-768.7v13.58H-789.2v6.889H-768.7v13.587l-34.089.034v-54.6H-768.7v13.58Z" fill="#0b0b66"/>
  </g>
</svg>